<svg id="Layer_7" data-name="Layer 7" xmlns="http://www.w3.org/2000/svg" viewBox="0 0 376.7 434.98"><defs><style>.cls-1{fill:#fff;stroke:#262626;stroke-miterlimit:10;stroke-width:3px;}.cls-2{fill:#262626;}</style></defs><title>whiteHex</title><path class="cls-1" d="M250,446.24,63.15,554.12V769.88L250,877.76,436.85,769.88V554.12Z" transform="translate(-61.65 -444.51)"/><path class="cls-2" d="M250,444.51,62.4,552.82l-.75.44V770.74l187.6,108.31.75.44L437.6,771.18l.75-.44V553.26ZM434,554.2,387.09,581,250,501.85,112.91,581,66,554.2,250,448ZM250,818.68,114.31,740.34V583.66L250,505.32l135.69,78.34V740.34ZM64.65,556.88l46.66,26.67V742.07L249,821.57v53.88L64.65,769ZM252,874.87V821l135.94-78.48.75-.44V583.55l46.66-26.67V769Z" transform="translate(-61.65 -444.51)"/></svg>